<svg width="16" height="12" viewBox="0 0 16 12" fill="none" xmlns="http://www.w3.org/2000/svg">
<path id="&#244;&#128;&#141;&#149;" d="M2.27536 12H13.942C15.2464 12 16 11.2757 16 9.84097V2.15206C16 0.724318 15.2391 0 13.7246 0H2.05797C0.753623 0 0 0.717353 0 2.15206V9.84097C0 11.2826 0.76087 12 2.27536 12ZM7.13768 6.35171L1.66667 1.16309C1.82609 1.10041 2.01449 1.06558 2.23188 1.06558H13.7681C13.9928 1.06558 14.1884 1.10041 14.3478 1.17005L8.8913 6.35171C8.57971 6.65119 8.2971 6.78352 8.01449 6.78352C7.72464 6.78352 7.44203 6.64423 7.13768 6.35171ZM1.1087 9.84097V2.15206C1.1087 2.09634 1.1087 2.1242 1.1087 2.07545L5.27536 6.01045L1.11594 9.95937C1.1087 9.92455 1.1087 9.88276 1.1087 9.84097ZM14.8913 2.15902V9.84794C14.8913 9.8758 14.8913 9.91062 14.8913 9.93848L10.7536 6.01045L14.8913 2.09634C14.8913 2.15902 14.8913 2.15902 14.8913 2.15902ZM2.23188 10.9344C2.02899 10.9344 1.85507 10.9066 1.7029 10.8439L6.03623 6.7278L6.50725 7.17353C7.01449 7.65409 7.5 7.85607 8.01449 7.85607C8.52174 7.85607 9.01449 7.65409 9.52174 7.17353L9.99275 6.7278L14.3188 10.8369C14.1594 10.9066 13.9783 10.9344 13.7681 10.9344H2.23188Z" fill="white"/>
</svg>
