<svg width="16" height="13" viewBox="0 0 16 13" fill="none" xmlns="http://www.w3.org/2000/svg">
<path id="Vector" fill-rule="evenodd" clip-rule="evenodd" d="M0 12.35C0 12.1776 0.070238 12.0123 0.195262 11.8904C0.320287 11.7685 0.489856 11.7 0.666667 11.7H10C10.1768 11.7 10.3464 11.7685 10.4714 11.8904C10.5964 12.0123 10.6667 12.1776 10.6667 12.35C10.6667 12.5224 10.5964 12.6877 10.4714 12.8096C10.3464 12.9315 10.1768 13 10 13H0.666667C0.489856 13 0.320287 12.9315 0.195262 12.8096C0.070238 12.6877 0 12.5224 0 12.35ZM0 8.45C0 8.27761 0.070238 8.11228 0.195262 7.99038C0.320287 7.86848 0.489856 7.8 0.666667 7.8H15.3333C15.5101 7.8 15.6797 7.86848 15.8047 7.99038C15.9298 8.11228 16 8.27761 16 8.45C16 8.62239 15.9298 8.78772 15.8047 8.90962C15.6797 9.03152 15.5101 9.1 15.3333 9.1H0.666667C0.489856 9.1 0.320287 9.03152 0.195262 8.90962C0.070238 8.78772 0 8.62239 0 8.45ZM0 4.55C0 4.37761 0.070238 4.21228 0.195262 4.09038C0.320287 3.96848 0.489856 3.9 0.666667 3.9H10C10.1768 3.9 10.3464 3.96848 10.4714 4.09038C10.5964 4.21228 10.6667 4.37761 10.6667 4.55C10.6667 4.72239 10.5964 4.88772 10.4714 5.00962C10.3464 5.13152 10.1768 5.2 10 5.2H0.666667C0.489856 5.2 0.320287 5.13152 0.195262 5.00962C0.070238 4.88772 0 4.72239 0 4.55ZM0 0.65C0 0.477609 0.070238 0.312279 0.195262 0.190381C0.320287 0.0684821 0.489856 0 0.666667 0H15.3333C15.5101 0 15.6797 0.0684821 15.8047 0.190381C15.9298 0.312279 16 0.477609 16 0.65C16 0.822391 15.9298 0.987721 15.8047 1.10962C15.6797 1.23152 15.5101 1.3 15.3333 1.3H0.666667C0.489856 1.3 0.320287 1.23152 0.195262 1.10962C0.070238 0.987721 0 0.822391 0 0.65Z" fill="white"/>
</svg>
